<svg id='loading' width='100%' height='100%' version="1.1"
xmlns="http://www.w3.org/2000/svg" > 

    <g 
    >
    <path 
        d="
        M100 180 
        C60 150, 50 140, 20 140 
        C5 136, 11 108, 15 110 
        C20 98, 90 140, 103 180 
        "
    stroke="" 
    fill="#5977df"
    >
    <animate 
        id="a1" 
        attributeName="fill"
        from="red" 
        to="#5977df"
        begin='0;a5.end'
        dur="2s" 
        fill="freeze"
        />
    </path>
    <path 
        d="
        M110 180
        Q 70 105 15 100
        C-1 90, 20 60 40 65
        Q 80 80 115 180
        "
    stroke="" fill="#1ebbda">
    <animate 
        id="a2" 
        attributeName="fill"
        from="blue" 
        to="1ebbda"
        dur="2s"  
        fill="freeze"
         begin="a1.end"
        />
    </path>
    <path 
        d="
        M120 180
        Q 100 85 50 60
        C 30 40  70 10 100 40
        Q 140 100 125 180
        "
    stroke="" fill="#57d841">
      <animate id="a3" 
        attributeName="fill"
        from="yellow" 
        to="57d841"
        dur="2s"  
        fill="freeze"
         begin="a2.end"
        />
    </path>
    <path 
        d="
        M130 180
        Q 150 85 110 35
        C 110 35 130 -10 168 40
        C 180 80 160 150 135 180 
        "
    stroke="" fill="#f2b81a">
     <animate 
        id="a4" 
        attributeName="fill"
        from="grey" 
        to="f2b81a"
        dur="2s"  
        begin="a3.end"
        fill="freeze"
        />
    </path>
    <path 
        d="
        M165 140
        Q 185 85 178 60
        Q 200 45 200 110
        C 140 200 160 150 165 140
        "
    stroke="" fill="#f78c2b">
     <animate 
        id="a5" 
        attributeName="fill"
        from="green" 
        to="f78c2b"
        dur="2s"  
        begin="a4.end"
        fill="freeze"
        />
    </path>
    </g>
</svg>